<?xml version="1.0" encoding="UTF-8" standalone="no"?>
<!-- Created with Inkscape (http://www.inkscape.org/) -->

<svg
   xmlns:dc="http://purl.org/dc/elements/1.1/"
   xmlns:cc="http://creativecommons.org/ns#"
   xmlns:rdf="http://www.w3.org/1999/02/22-rdf-syntax-ns#"
   xmlns:svg="http://www.w3.org/2000/svg"
   xmlns="http://www.w3.org/2000/svg"
   xmlns:sodipodi="http://sodipodi.sourceforge.net/DTD/sodipodi-0.dtd"
   xmlns:inkscape="http://www.inkscape.org/namespaces/inkscape"
   width="256"
   height="256"
   viewBox="0 0 256 256"
   id="svg2"
   version="1.1"
   inkscape:version="0.92.3 (2405546, 2018-03-11)"
   sodipodi:docname="EasyCar_logo.svg"
   inkscape:export-filename="D:\ESI 19-20\ISWII\Practicas\02 EasyCar\logo\EasyCar_logo.png"
   inkscape:export-xdpi="300"
   inkscape:export-ydpi="300">
  <defs
     id="defs4" />
  <sodipodi:namedview
     id="base"
     pagecolor="#ffffff"
     bordercolor="#666666"
     borderopacity="1.0"
     inkscape:pageopacity="0.0"
     inkscape:pageshadow="2"
     inkscape:zoom="1.4"
     inkscape:cx="70.216786"
     inkscape:cy="159.00572"
     inkscape:document-units="px"
     inkscape:current-layer="layer1"
     showgrid="false"
     units="px"
     inkscape:window-width="1366"
     inkscape:window-height="745"
     inkscape:window-x="-8"
     inkscape:window-y="-8"
     inkscape:window-maximized="1"
     inkscape:showpageshadow="false"
     borderlayer="true" />
  <metadata
     id="metadata7">
    <rdf:RDF>
      <cc:Work
         rdf:about="">
        <dc:format>image/svg+xml</dc:format>
        <dc:type
           rdf:resource="http://purl.org/dc/dcmitype/StillImage" />
        <dc:title />
      </cc:Work>
    </rdf:RDF>
  </metadata>
  <g
     inkscape:groupmode="layer"
     id="layer2"
     inkscape:label="Background"
     style="display:inline">
    <rect
       style="fill:#ffffff;fill-opacity:1;stroke:none;stroke-width:2;stroke-linecap:square;stroke-miterlimit:4;stroke-dasharray:none;stroke-opacity:1"
       id="rect4150"
       width="256"
       height="256"
       x="0"
       y="2.4868996e-14"
       ry="2.0514944" />
  </g>
  <g
     inkscape:label="Logo"
     inkscape:groupmode="layer"
     id="layer1"
     transform="translate(0,-796.36216)"
     style="display:inline">
    <path
       style="fill:#fdcd08;fill-opacity:1"
       d=""
       id="path3384"
       inkscape:connector-curvature="0"
       transform="translate(0,796.36216)" />
    <text
       id="text3349"
       y="1004.1411"
       x="11.866688"
       style="font-style:normal;font-variant:normal;font-weight:normal;font-stretch:normal;line-height:0%;font-family:'Roboto Condensed';-inkscape-font-specification:'Roboto Condensed, ';letter-spacing:0px;word-spacing:0px;fill:#fdcd08;fill-opacity:1;stroke:none;stroke-width:1px;stroke-linecap:butt;stroke-linejoin:miter;stroke-opacity:1"
       xml:space="preserve"><tspan
         y="1004.1411"
         x="11.866688"
         id="tspan3351"
         sodipodi:role="line"
         style="font-style:normal;font-variant:normal;font-weight:normal;font-stretch:normal;font-size:70.15130615px;line-height:1.25;font-family:'Roboto Condensed';-inkscape-font-specification:'Roboto Condensed, ';fill:#fdcd08;fill-opacity:1">Easy</tspan></text>
    <path
       inkscape:connector-curvature="0"
       id="path133"
       d="m 230.22694,897.63674 c 0.002,-0.0291 0.3357,-1.09262 0.74127,-2.36308 1.58701,-4.97168 2.36289,-10.20485 2.16212,-14.58313 -0.26999,-5.88767 -2.35301,-10.20858 -6.17142,-12.8016 -0.70257,-0.47711 -2.81342,-1.60429 -4.6908,-2.50486 -22.31447,-10.70404 -53.87065,-16.1373 -74.49187,-12.82584 -11.88351,1.90829 -24.53202,5.97822 -36.92269,11.88066 -3.9636,1.8881 -4.2945,1.66903 -1.11731,-0.73969 2.4336,-1.84499 5.83146,-4.07187 8.92741,-5.85082 11.79512,-6.7775 24.4061,-10.81933 38.24974,-12.25906 3.44643,-0.35843 13.55291,-0.35843 16.99932,0 9.89551,1.02912 16.7403,2.70845 34.29561,8.41417 14.67938,4.77097 20.64331,5.81458 27.91133,4.88403 0.98408,-0.12593 1.11559,-0.098 1.11559,0.23814 0,0.20955 -0.86059,1.79107 -1.91242,3.51451 -1.05185,1.72348 -1.91243,3.25134 -1.91243,3.3953 0,0.14391 0.18373,0.55986 0.40832,0.92428 0.7164,1.16242 2.32171,5.31375 2.8682,7.41713 0.79462,3.05832 1.04303,5.41444 0.91211,8.65105 -0.13397,3.31087 -0.60366,5.3512 -1.8402,7.99368 -1.35846,2.90304 -4.25389,6.66824 -5.12782,6.66824 -0.2244,0 -0.40622,-0.024 -0.40406,-0.0531 z m -211.858105,-5.6569 c 0,-1.13416 1.179476,-4.8307 2.212258,-6.93324 4.578195,-9.32036 13.615545,-14.83211 27.536567,-16.79414 5.533502,-0.77991 22.517566,-0.58992 37.717256,0.4219 25.163934,1.67512 29.907094,1.88634 42.498334,1.89242 11.27105,0.005 15.61412,-0.19158 23.05535,-1.04595 7.75802,-0.89077 15.91538,-2.57159 21.74075,-4.47972 2.49945,-0.81869 2.55973,-0.33434 0.11185,0.8984 -6.71694,3.38261 -18.22821,6.63017 -29.60852,8.3532 -10.47535,1.58603 -16.55855,2.00731 -29.00511,2.00868 -9.5018,9.4e-4 -14.43395,-0.20248 -22.417865,-0.92514 -14.269527,-1.29158 -31.442099,-1.19359 -41.435873,0.23649 -15.321158,2.19241 -25.523158,7.33442 -31.048853,15.64925 -0.749045,1.12714 -1.35612,1.4485 -1.35612,0.71785 z"
       style="fill:#253040;fill-opacity:1;stroke:#253040;stroke-width:2.24867439;stroke-miterlimit:4;stroke-dasharray:none;stroke-opacity:1"
       sodipodi:nodetypes="ccccsssscssscssscccsscscsscsssscssss" />
    <g
       style="fill:#416cb3;fill-opacity:1;stroke:#ffffff;stroke-width:176.09385681;stroke-miterlimit:4;stroke-dasharray:none;stroke-opacity:1"
       transform="matrix(0.00757001,0.00760668,0.00760668,-0.00757001,33.208928,913.74299)"
       id="g6">
      <path
         inkscape:connector-curvature="0"
         d="M 9020,12775 C 8065,12511 7365,11747 7200,10789 7167.0097,9776.5032 7362.8399,8755.6755 6632.9141,7891.0078 l -1945,-1976 C 3516.4228,4795.015 2714.3405,5081.7073 1805,4843 1067,4631 461,4085 181,3382 105,3191 55,3003 19,2765 2,2660 2,2281 18,2160 67,1797 187,1450 370,1150 c 60,-98 85,-128 119,-141 34,-13 83,5 103,39 9,15 144,377 298,803 155,425 300,812 322,859 52,109 166,227 273,282 138,72 306,97 447,67 70,-15 1213,-431 1303,-474 178,-86 319,-268 355,-456 15,-80 11,-226 -9,-299 -9,-36 -153,-438 -320,-895 C 2944,68 2946,73 2986,28 c 37,-39 79,-35 293,33 824,263 1455,935 1665,1774 68,271 91,556 66,817 -308.4658,1244.2886 -234.0367,908.2194 812.0594,2075.1892 L 7994.3516,6870.9023 C 9005.7739,7942.6682 9227.6471,7672.8774 10255,7920 c 460,111 852,329 1186,660 399,396 628,858 720,1455 17,105 17,484 1,605 -39,290 -118,554 -241,805 -64,130 -150,276 -184,314 -53,57 -123,47 -156,-22 -11,-23 -146,-388 -301,-812 -154,-423 -296,-804 -317,-845 -48,-99 -167,-220 -268,-272 -138,-72 -306,-97 -447,-67 -70,15 -1213,431 -1303,474 -140,68 -255,189 -315,332 -38,91 -50,153 -50,259 0,118 10,153 132,489 60,165 200,547 310,849 219,604 218,598 155,636 -40,25 -51,24 -157,-5 z"
         id="path4"
         sodipodi:nodetypes="cccccccccscccccccccccccccccccccsccccccscccc"
         style="fill:#416cb3;fill-opacity:1;stroke:#ffffff;stroke-width:176.09385681;stroke-miterlimit:4;stroke-dasharray:none;stroke-opacity:1" />
    </g>
    <text
       xml:space="preserve"
       style="font-style:normal;font-variant:normal;font-weight:normal;font-stretch:normal;line-height:0%;font-family:'Roboto Condensed';-inkscape-font-specification:'Roboto Condensed, ';letter-spacing:0px;word-spacing:0px;fill:#253040;fill-opacity:1;stroke:none;stroke-width:1px;stroke-linecap:butt;stroke-linejoin:miter;stroke-opacity:1"
       x="143.80461"
       y="1004.1411"
       id="text4654"><tspan
         style="font-style:normal;font-variant:normal;font-weight:bold;font-stretch:normal;font-size:70.15130615px;line-height:1.25;font-family:'Roboto Condensed';-inkscape-font-specification:'Roboto Condensed, Bold';fill:#253040;fill-opacity:1"
         sodipodi:role="line"
         id="tspan4652"
         x="143.80461"
         y="1004.1411">Car</tspan></text>
  </g>
</svg>
